<?xml version="1.0" encoding="UTF-8"?> <svg xmlns="http://www.w3.org/2000/svg" fill="none" viewBox="0 0 204 34"><g clip-path="url(#a)"><path d="m182.71 0c2.039 1.1983 2.629 2.1604 2.327 3.796-0.27 1.4678-1.519 2.4514-3.177 2.5024-1.784 0.0548-3.123-0.79305-3.508-2.2217-0.427-1.578 0.213-2.9895 1.688-3.7368 0.206-0.10443 0.403-0.2262 0.604-0.33995 0.689-1.2272e-6 1.377-1.2272e-6 2.066-1.2272e-6z" fill="#1E1E1E"></path><path d="m50.047 20.081h-13.488c-0.288 1.7419 1.0874 3.5439 2.9464 3.7898 1.9711 0.2607 3.7742-0.0843 5.0583-1.7995 0.142-0.1896 0.5182-0.3693 0.7331-0.3222 1.5723 0.3449 3.1311 0.7488 4.8162 1.1641-1.2915 2.4229-3.1584 4.0448-5.7453 4.7869-2.5298 0.7258-5.1044 0.7361-7.6389 0.0208-4.4771-1.2636-7.0395-5.3704-6.3996-10.152 0.643-4.8059 3.8297-7.744 8.8235-8.0042 1.3956-0.07272 2.8383-0.016 4.2047 0.25089 4.0352 0.78821 6.4098 3.6588 6.6826 7.8911 0.0474 0.7355 0.0067 1.4765 0.0067 2.3747zm-6.4393-3.2877c-0.1811-2.173-1.3414-3.3178-3.3064-3.3472-2.1072-0.0316-3.5812 1.2689-3.759 3.3472h7.0654z" fill="#1E1E1E"></path><path d="m104.8 20.102h-13.561c-0.063 2.6895 2.2488 4.3215 5.1713 3.7526 1.152-0.2242 2.1204-0.7489 2.8459-1.6891 0.1593-0.2066 0.4951-0.476 0.6863-0.4346 1.6319 0.3532 3.2489 0.7715 4.9419 1.1881-1.781 3.2517-4.497 4.9435-8.0678 5.2022-1.5587 0.1129-3.1904 0.0567-4.7109-0.271-4.8568-1.0466-7.6488-5.1919-7.0251-10.171 0.6109-4.8764 3.7862-7.8438 8.8241-8.1145 1.3954-0.07498 2.838-0.0171 4.2051 0.24748 3.9996 0.77402 6.3976 3.631 6.6836 7.7827 0.053 0.77 7e-3 1.5466 7e-3 2.5068zm-6.4391-3.3282c-0.1286-2.1075-1.3033-3.2818-3.2772-3.3259-2.1039-0.0469-3.5382 1.2029-3.7967 3.3259h7.0739z" fill="#1E1E1E"></path><path d="m156.05 17.993c0-0.7377 0.061-1.4092-0.014-2.0657-0.128-1.1222-0.935-1.7921-2.282-1.958-2.337-0.2879-4.492 0.3307-6.661 1.3985-0.661-1.3081-1.309-2.5892-1.992-3.9382 3.984-1.8424 8.03-2.7619 12.321-1.4581 3.061 0.92994 4.372 2.7964 4.375 5.9523 3e-3 3.5776 0 7.1552 0 10.733v1.0817h-5.681v-2.0678c-0.598 0.5179-0.999 0.9755-1.497 1.2783-2.635 1.6013-5.401 1.7928-8.126 0.3335-2.269-1.215-2.921-3.3174-2.599-5.7141 0.29-2.1541 1.589-3.5525 3.707-4.149 2.52-0.7097 5.032-0.5469 7.511 0.2441 0.289 0.092 0.572 0.2004 0.938 0.3297zm-2.966 2.1985c-0.612 0.0337-1.027 0.0301-1.434 0.084-1.16 0.1535-1.765 0.7164-1.859 1.6904-0.104 1.0894 0.424 1.8867 1.495 2.2551 1.766 0.608 3.948-0.4208 4.554-2.1477 0.38-1.0852 0.293-1.2933-0.817-1.5598-0.697-0.1673-1.418-0.2382-1.939-0.322z" fill="#1E1E1E"></path><path d="m140.96 27.764h-6.138v-1.1457c0-3.0385 1e-3 -6.0769-1e-3 -9.1154 0-0.4049 0-0.8108-0.026-1.2147-0.111-1.7672-0.891-2.5987-2.467-2.6441-1.669-0.048-2.903 0.9104-3.118 2.4828-0.087 0.632-0.069 1.2799-0.07 1.9207-6e-3 3.2016-3e-3 6.4033-3e-3 9.6908h-5.89v-17.773h5.837c0.033 0.70549 0.065 1.3942 0.101 2.1607 0.151-0.0918 0.246-0.1216 0.298-0.1849 2.051-2.4905 5.398-3.2364 8.356-1.849 2.102 0.9856 3.021 2.8032 3.084 4.9151 0.125 4.2126 0.037 8.4312 0.037 12.757z" fill="#1E1E1E"></path><path d="m70.627 9.9157c-2.2681 2.8796-4.354 5.5609-6.4852 8.207-0.4404 0.5468-0.4748 0.8954-0.0148 1.4643 2.136 2.6417 4.2169 5.3263 6.4969 8.2234-0.9214 0-1.6436 0.0064-2.3656-0.0014-1.3734-0.0149-2.9477 0.3649-4.0634-0.171-1.1133-0.5346-1.7678-1.9894-2.6217-3.0422-0.4043-0.4984-0.8046-1.0001-1.2624-1.5694-1.121 1.4196-2.1564 2.8037-3.2848 4.1105-0.2993 0.3466-0.8777 0.6247-1.3402 0.6435-1.8062 0.0732-3.6174 0.0299-5.6443 0.0299 0.5999-0.7782 1.0631-1.3885 1.5363-1.9912 1.6368-2.0845 3.2514-4.1865 4.9324-6.2361 0.4689-0.5716 0.4189-0.9171-0.0199-1.4624-2.1291-2.6457-4.2122-5.327-6.4762-8.205 1.2953 0 2.4216 0.13335 3.5023-0.02783 2.2336-0.33321 3.7934 0.39598 4.88 2.3499 0.4841 0.8707 1.2357 1.5983 1.928 2.4688 1.1289-1.4313 2.1638-2.8178 3.2933-4.1257 0.2987-0.346 0.8816-0.617 1.3459-0.6356 1.8073-0.07242 3.6194-0.02952 5.6634-0.02952z" fill="#1E1E1E"></path><path d="m203.98 16.76c-1.3-1.527-2.744-2.2277-4.445-2.4634-2.034-0.2821-3.689 0.3718-4.828 2.0362-1.094 1.5986-1.116 3.3347-0.118 4.9735 1.044 1.7124 2.736 2.2852 4.695 2.1247 1.814-0.1487 3.359-0.875 4.692-2.5062 0 1.9614 0.016 3.663-0.02 5.3635-4e-3 0.2095-0.238 0.4708-0.436 0.6115-3.289 2.3324-9.991 1.5265-13.12-1.5638-3.131-3.0911-3.549-8.3964-0.906-11.913 1.86-2.4748 4.474-3.6232 7.52-3.8691 2.148-0.17336 4.257 0.01304 6.224 1.0235 0.559 0.287 0.774 0.6438 0.756 1.2685-0.044 1.5419-0.014 3.0859-0.014 4.914z" fill="#1E1E1E"></path><path d="m83.501 14.795h-3.0368v12.941h-5.7179v-12.911h-3.1133v-4.9034h3.0495v-6.1958h5.7155v6.1349h3.103v4.9347z" fill="#1E1E1E"></path><path d="m172.99 27.766h-5.719v-12.929h-3.106v-4.9014h3.017v-6.2056h5.757v6.1488h3.081v4.8723h-3.03v13.015z" fill="#1E1E1E"></path><path d="m118.84 15.998c-1.073-0.9301-2.203-1.3311-3.468-0.7006-1.248 0.6219-1.639 1.7936-1.665 3.052-0.055 2.7316-0.033 5.4647-0.043 8.1971-1e-3 0.3656 0 0.7311 0 1.1799h-5.837v-17.753h5.791v2.1368c0.437-0.4752 0.671-0.735 0.911-0.9897 1.723-1.8299 4.375-2.1705 6.247-0.8218 0.474 0.3419 0.677 0.6476 0.346 1.2482-0.796 1.4471-1.512 2.9365-2.282 4.4514z" fill="#1E1E1E"></path><path d="m178.83 9.9424h5.611v17.822h-5.611v-17.822z" fill="#1E1E1E"></path><path d="m30.165 3.7206c-4.0221 5.1102-7.8963 10.033-11.842 15.046-1.0969-1.3942-2.1178-2.6919-3.1705-4.0299 2.8209-3.5821 5.6065-7.1302 8.4169-10.659 0.1586-0.19909 0.5199-0.33724 0.7895-0.34152 1.8514-0.02934 3.7035-0.01541 5.8064-0.01541z" fill="#B82061"></path><path d="m11.821 18.969c1.1206 1.424 2.1248 2.7002 3.1703 4.0288-1.4044 1.7847-2.7866 3.5412-4.1686 5.2978-1.3437 1.7078-2.6759 3.4245-4.0427 5.1142-0.20894 0.2583-0.57326 0.5498-0.87324 0.5579-1.8808 0.0509-3.7637 0.0257-5.9063 0.0257 3.9985-5.0821 7.8642-9.9955 11.821-15.024z" fill="#B82061"></path><path d="m4.8381 9.9489c2.1279 0 3.9856-0.02162 5.8418 0.02072 0.3191 0.00728 0.7296 0.2091 0.9312 0.4534 1.1464 1.3887 2.2423 2.8176 3.4211 4.3164-1.0461 1.3292-2.0863 2.651-3.21 4.0788-2.3286-2.9572-4.5842-5.8217-6.9841-8.8693z" fill="#801342"></path><path d="m25.292 27.767c-2.1543 0-4.0403 0.0141-5.9255-0.0162-0.2635-0.0043-0.6086-0.1599-0.7713-0.3591-1.1763-1.4405-2.3154-2.9101-3.4841-4.3932 1.0619-1.3471 2.086-2.6462 3.2132-4.076 2.3148 2.9383 4.5624 5.7912 6.9677 8.8445z" fill="#801342"></path></g><defs><clipPath id="a"><rect width="204" height="34" fill="#fff"></rect></clipPath></defs></svg> 